<svg xmlns="http://www.w3.org/2000/svg" xml:space="preserve"
    style="fill-rule:evenodd;clip-rule:evenodd;stroke-linejoin:round;stroke-miterlimit:1.41421"
    viewBox="0 0 550 200"><path d="m178.971 95.962-13.998 8.077 14.001 8.085a27.99 27.99 0 0 1 13.994 24.241v.001c0 10-5.334 19.24-13.994 24.241l-.001.001a28 28 0 0 1-27.999 0l-13.995-8.082v-32.321l-13.998 8.077-13.997-8.077v48.487l13.997 8.077 14.001 8.083a55.99 55.99 0 0 0 83.981-48.487v-.002a55.99 55.99 0 0 0-27.994-48.487l-13.998-8.081z" style="fill:url(#a);fill-rule:nonzero"/><path d="m94.991 15.146-.002.001a55.99 55.99 0 0 0-27.997 48.489v16.159l.854-.49 13.143-7.586 13.998 8.076v-16.16c0-10 5.334-19.24 13.994-24.241l.001-.001a27.99 27.99 0 0 1 27.999 0l.001.001a27.99 27.99 0 0 1 13.994 24.241v16.16l-27.995 16.167 13.998 8.077v16.166l27.994-16.166 13.998-8.077V63.636a55.99 55.99 0 0 0-27.998-48.489l-.001-.001a55.96 55.96 0 0 0-27.99-7.499c-9.665 0-19.33 2.5-27.991 7.499" style="fill:url(#b);fill-rule:nonzero"/><path d="m67.846 79.305-.854.49-13.998 8.081A55.99 55.99 0 0 0 25 136.363v.002a55.988 55.988 0 0 0 83.981 48.487l14-8.083-13.997-8.077v-16.166l-13.995 8.082a28 28 0 0 1-27.999 0l-.001-.001a27.99 27.99 0 0 1-13.994-24.241v-.001c0-10 5.334-19.24 13.994-24.241l14-8.085 27.995 16.166v-16.166l13.997-8.077-27.994-16.167-13.998-8.076z" style="fill:url(#c);fill-rule:nonzero"/><path d="M243.957 62.197h24.108v50.879q4.925-5.992 9.99-8.058 5.06-2.063 11.853-2.064 12.92 0 19.513 7.126t6.593 19.245v43.421h-24.107v-34.497q0-5.195-.8-8.39-.8-3.197-2.664-4.929-3.197-2.797-7.725-2.796-6.127 0-9.39 3.662t-3.263 10.456v36.494h-24.108zM355.41 172.746h-24.108v-68.327h24.108zM329.703 78.18q-.001-2.796 1.066-5.261a13.8 13.8 0 0 1 7.259-7.259q2.463-1.065 5.261-1.066 2.796.001 5.261 1.066a13.9 13.9 0 0 1 4.329 2.93 13.9 13.9 0 0 1 2.93 4.329q1.066 2.465 1.066 5.261t-1.066 5.261a13.8 13.8 0 0 1-7.259 7.259q-2.465 1.067-5.261 1.065-2.798.002-5.261-1.065a13.8 13.8 0 0 1-4.329-2.93 13.8 13.8 0 0 1-2.93-4.329q-1.067-2.464-1.066-5.261m60.295 26.239 16.25 35.029 16.515-35.029h26.905l-35.563 68.327H397.99l-35.163-68.327zm112.493 24.24q-1.2-5.06-4.928-8.124-3.731-3.062-9.057-3.063-5.595.001-9.124 2.93-3.53 2.932-4.461 8.257zm-28.236 13.986q-.001 15.583 14.651 15.583 7.857 0 11.854-6.393h23.308q-7.06 23.443-35.295 23.442-8.66 0-15.851-2.598-7.192-2.596-12.32-7.392-5.128-4.793-7.925-11.454-2.796-6.658-2.797-14.918 0-8.522 2.664-15.383 2.663-6.859 7.592-11.654 4.927-4.795 11.921-7.393t15.783-2.597q8.656 0 15.583 2.597t11.721 7.526q4.795 4.93 7.326 12.053 2.529 7.129 2.53 16.05v2.531z" style="fill:#070f34;fill-rule:nonzero"/><defs><linearGradient id="a" x1="0" x2="1" y1="0" y2="0" gradientTransform="translate(108.984 136.074)scale(111.979)" gradientUnits="userSpaceOnUse"><stop offset="0" style="stop-color:#7f49dd;stop-opacity:1"/><stop offset=".5" style="stop-color:#00a3ff;stop-opacity:1"/><stop offset="1" style="stop-color:#17f9da;stop-opacity:1"/></linearGradient><linearGradient id="b" x1="0" x2="1" y1="0" y2="0" gradientTransform="translate(66.992 63.926)scale(111.979)" gradientUnits="userSpaceOnUse"><stop offset="0" style="stop-color:#7f49dd;stop-opacity:1"/><stop offset=".5" style="stop-color:#00a3ff;stop-opacity:1"/><stop offset="1" style="stop-color:#17f9da;stop-opacity:1"/></linearGradient><linearGradient id="c" x1="0" x2="1" y1="0" y2="0" gradientTransform="translate(25 132.036)scale(97.9814)" gradientUnits="userSpaceOnUse"><stop offset="0" style="stop-color:#7f49dd;stop-opacity:1"/><stop offset=".5" style="stop-color:#00a3ff;stop-opacity:1"/><stop offset="1" style="stop-color:#17f9da;stop-opacity:1"/></linearGradient></defs></svg>